<svg xmlns="http://www.w3.org/2000/svg" viewBox="0 0 192 192" width="192" height="192">
  <rect width="192" height="192" fill="#FDF4ED"/>
  <g transform="translate(21.916,75.756) scale(0.215360)">
    <g transform="translate(0,188.0) scale(0.1,-0.1)" fill="#D2B19C" stroke="none">
      <path d="M710 1770 c0 -4 11 -11 24 -14 13 -3 50 -29 80 -57 61 -55 43 -22
474 -899 63 -129 117 -239 120 -243 2 -5 -24 12 -59 38 -333 242 -742 151
-985 -221 -72 -111 -145 -188 -206 -218 l-52 -26 185 1 c157 0 179 2 150 13
-90 32 -105 117 -37 218 193 291 523 406 797 277 162 -77 273 -208 369 -436
28 -66 47 -73 206 -73 l124 0 -37 38 c-21 21 -52 68 -70 103 -18 35 -131 267
-253 514 -121 248 -225 458 -231 468 -20 36 -97 192 -129 262 -95 207 -158
254 -353 259 -64 2 -117 0 -117 -4z"/>
      <path d="M5580 1774 c0 -5 19 -18 41 -29 70 -33 105 -88 291 -460 99 -198 222
-442 274 -543 51 -100 87 -179 81 -175 -7 4 -24 18 -40 32 -15 13 -44 34 -65
46 -314 178 -627 70 -852 -294 -67 -109 -94 -135 -141 -133 -39 1 -45 6 -331
287 -261 258 -290 279 -422 317 -66 18 -62 25 21 31 318 26 513 201 513 461 0
232 -147 383 -420 436 -90 18 -145 20 -523 20 l-422 0 42 -21 c81 -40 78 -5
81 -764 3 -782 4 -777 -86 -838 -27 -18 -27 -18 73 -15 91 3 104 6 143 32 83
57 87 71 90 396 l3 285 92 -1 c51 -1 116 -2 146 -3 l55 -1 86 -87 c47 -49 183
-188 301 -311 259 -266 313 -312 399 -336 125 -35 203 -2 271 116 138 238 232
344 370 414 192 98 424 56 589 -106 88 -86 112 -120 176 -254 71 -148 58 -140
233 -144 l146 -3 -33 20 c-50 32 -75 79 -437 801 -389 779 -384 770 -485 806
-49 18 -260 32 -260 18z m-1193 -68 c258 -64 383 -298 294 -550 -70 -201 -198
-266 -538 -274 l-213 -4 0 427 0 428 198 -6 c126 -4 219 -11 259 -21z"/>
      <path d="M1925 1750 c22 -11 51 -36 65 -57 l25 -36 6 -541 c5 -476 8 -548 23
-601 76 -256 288 -398 596 -399 329 0 550 166 631 474 8 30 14 210 18 545 7
576 3 554 102 614 l34 21 -160 0 c-155 0 -159 -1 -127 -17 41 -20 76 -65 92
-118 8 -29 10 -181 8 -540 -4 -560 -4 -557 -82 -679 -172 -265 -537 -319 -756
-110 -141 135 -150 181 -150 799 0 545 -2 570 -60 619 -43 35 -89 46 -205 46
l-100 0 40 -20z"/>
    </g>
  </g>
</svg>
